<svg width="25" height="23" viewBox="0 0 25 23" fill="none" xmlns="http://www.w3.org/2000/svg">
<path d="M15.8176 19.3459V19.1493C15.8176 17.5855 14.4179 16.3132 12.6978 16.3132H4.89887C3.17874 16.3132 1.77973 17.5856 1.77973 19.1493V19.3462C0.999854 19.5919 1 20.0439 1 20.5672C1 21.3503 1.69819 21.9851 2.55957 21.9851H15.0379C15.8993 21.9851 16.5978 21.3503 16.5978 20.5672C16.5978 20.0436 16.5975 19.5915 15.8176 19.3459Z" stroke="#264B82" stroke-width="2"/>
<path d="M21.9459 14.2824L11.2515 8.108" stroke="#264B82" stroke-width="2"/>
<rect x="9.44824" y="2.46741" width="3.98351" height="7.96702" transform="rotate(30 9.44824 2.46741)" stroke="#264B82" stroke-width="2"/>
<path d="M7.30542 1.00006L15.24 5.58109" stroke="#264B82" stroke-width="2"/>
<path d="M3.22266 8.07227L11.1572 12.6533" stroke="#264B82" stroke-width="2"/>
</svg>
